<svg width="30" height="24" viewBox="0 0 30 24" fill="none" xmlns="http://www.w3.org/2000/svg">
<path d="M7.65306 23.3199C6.69254 23.7512 4.83484 24.4373 3.88629 23.6155C3.22707 23.0443 3.26374 21.6041 3.31063 20.817C3.45953 18.325 4.876 15.8672 6.37352 13.9357C8.16387 11.627 10.8434 9.86535 13.7634 9.76683C15.98 9.69201 18.1637 10.5817 19.8944 11.9685C21.6252 13.3553 22.9329 15.212 23.9373 17.1891C24.4274 18.1539 24.8582 19.1852 24.8746 20.2672C24.8908 21.3492 24.4124 22.4966 23.4614 23.0126C22.6989 23.4264 21.7571 23.3778 20.932 23.1096C20.1069 22.8418 19.3634 22.3753 18.5994 21.964C17.1902 21.2056 15.6266 20.6149 14.0293 20.7119C11.7199 20.8526 9.76391 22.3721 7.65306 23.3199Z" fill="black"/>
<path d="M5.46221 11.1432C5.74581 13.4805 3.97017 14.7521 2.15663 12.9949C1.04446 11.9174 0.178717 10.0006 0.0235771 8.45941C-0.0544918 7.68271 0.0405378 6.80499 0.62618 6.28894C1.18738 5.79434 2.06484 5.79159 2.73454 6.12507C3.40424 6.45855 3.89535 7.06788 4.2812 7.7089C4.90999 8.75372 5.3153 9.93249 5.46221 11.1432Z" fill="black"/>
<path d="M12.1667 4.8491C12.5403 6.4222 12.0966 8.85008 9.9713 8.67149C7.4272 8.45774 7.13164 4.06766 7.40675 2.25861C7.50976 1.58018 7.7734 0.82269 8.41316 0.574765C8.85364 0.403911 9.3667 0.535107 9.75555 0.803734C10.1442 1.07211 10.431 1.46146 10.6986 1.85081C11.3319 2.77342 11.9081 3.76013 12.1667 4.8491Z" fill="black"/>
<path d="M21.0142 3.82031C21.0372 2.77798 20.8047 1.68377 20.1203 0.897339C19.4359 0.110913 18.2262 -0.268956 17.3023 0.214173C16.3433 0.715511 15.9904 1.89877 15.8322 2.96904C15.6172 4.42241 15.2703 7.09322 16.3318 8.31763C16.9963 9.0841 17.9927 8.68528 18.7547 8.24255C20.2495 7.37357 20.978 5.47647 21.0142 3.82031Z" fill="black"/>
<path d="M27.2745 13.3564C25.7777 14.7681 22.7183 14.3306 22.9885 11.8955C23.171 10.2483 24.2922 8.55126 25.3083 7.28744C25.9281 6.51672 26.835 5.77245 27.8005 5.9872C28.5663 6.15756 29.093 6.9133 29.227 7.68626C29.3607 8.45922 29.1779 9.24939 28.9701 10.0059C28.6341 11.2285 28.1971 12.4864 27.2745 13.3564Z" fill="black"/>
</svg>
